HIERARCHY
ROOT Hips
{
	OFFSET 0.000000 100.481300 0.000000
	CHANNELS 6 Xposition Yposition Zposition Xrotation Yrotation Zrotation
	JOINT Spine
	{
		OFFSET -0.279200 12.230698 -2.892100
		CHANNELS 3 Xrotation Yrotation Zrotation
		JOINT Spine1
		{
			OFFSET -0.325700 14.269203 -3.374200
			CHANNELS 3 Xrotation Yrotation Zrotation
			JOINT Spine2
			{
				OFFSET -0.372300 16.307602 -0.352600
				CHANNELS 3 Xrotation Yrotation Zrotation
				JOINT Neck
				{
					OFFSET -0.418800 17.814194 8.416900
					CHANNELS 3 Xrotation Yrotation Zrotation
					JOINT Head
					{
						OFFSET 0.000000 7.031097 3.806800
						CHANNELS 3 Xrotation Yrotation Zrotation
						JOINT HeadTop_End
						{
							OFFSET 0.000000 24.646606 12.978600
							CHANNELS 3 Xrotation Yrotation Zrotation
							End Site
							{
								OFFSET 0.000000 27.854965 0.000000
							}
						}
					}
				}
				JOINT LeftShoulder
				{
					OFFSET 16.952999 14.495407 -7.737500
					CHANNELS 3 Xrotation Yrotation Zrotation
					JOINT LeftArm
					{
						OFFSET 9.308998 -2.777710 0.208600
						CHANNELS 3 Xrotation Yrotation Zrotation
						JOINT LeftForeArm
						{
							OFFSET 29.972298 0.000000 0.000000
							CHANNELS 3 Xrotation Yrotation Zrotation
							JOINT LeftHand
							{
								OFFSET 26.026505 0.000000 0.000000
								CHANNELS 3 Xrotation Yrotation Zrotation
								JOINT LeftHandThumb1
								{
									OFFSET 12.240501 -7.147949 9.207150
									CHANNELS 3 Xrotation Yrotation Zrotation
									JOINT LeftHandThumb2
									{
										OFFSET 4.138618 -2.389435 2.389433
										CHANNELS 3 Xrotation Yrotation Zrotation
										JOINT LeftHandThumb3
										{
											OFFSET 2.726913 -1.574387 1.574386
											CHANNELS 3 Xrotation Yrotation Zrotation
											JOINT LeftHandThumb4
											{
												OFFSET 3.941010 -2.275345 2.275342
												CHANNELS 3 Xrotation Yrotation Zrotation
												End Site
												{
													OFFSET -0.005798 5.087799 0.009903
												}
											}
										}
									}
								}
								JOINT LeftHandIndex1
								{
									OFFSET 24.424698 -1.985611 5.953459
									CHANNELS 3 Xrotation Yrotation Zrotation
									JOINT LeftHandIndex2
									{
										OFFSET 6.426697 0.000000 0.000000
										CHANNELS 3 Xrotation Yrotation Zrotation
										JOINT LeftHandIndex3
										{
											OFFSET 5.337898 0.000000 0.000000
											CHANNELS 3 Xrotation Yrotation Zrotation
											JOINT LeftHandIndex4
											{
												OFFSET 4.409401 0.000000 0.000000
												CHANNELS 3 Xrotation Yrotation Zrotation
												End Site
												{
													OFFSET 0.000000 4.409363 0.014373
												}
											}
										}
									}
								}
								JOINT LeftHandMiddle1
								{
									OFFSET 23.810104 0.000000 0.000000
									CHANNELS 3 Xrotation Yrotation Zrotation
									JOINT LeftHandMiddle2
									{
										OFFSET 7.176498 0.000000 0.000000
										CHANNELS 3 Xrotation Yrotation Zrotation
										JOINT LeftHandMiddle3
										{
											OFFSET 6.774902 0.000000 0.000000
											CHANNELS 3 Xrotation Yrotation Zrotation
											JOINT LeftHandMiddle4
											{
												OFFSET 5.403328 0.000000 0.000000
												CHANNELS 3 Xrotation Yrotation Zrotation
												End Site
												{
													OFFSET -0.027702 5.403244 0.017414
												}
											}
										}
									}
								}
								JOINT LeftHandRing1
								{
									OFFSET 22.908401 -0.839279 -6.020567
									CHANNELS 3 Xrotation Yrotation Zrotation
									JOINT LeftHandRing2
									{
										OFFSET 6.337502 0.000000 0.000000
										CHANNELS 3 Xrotation Yrotation Zrotation
										JOINT LeftHandRing3
										{
											OFFSET 5.779297 0.000000 0.000000
											CHANNELS 3 Xrotation Yrotation Zrotation
											JOINT LeftHandRing4
											{
												OFFSET 4.965698 0.000000 0.000000
												CHANNELS 3 Xrotation Yrotation Zrotation
												End Site
												{
													OFFSET 0.000000 4.965668 0.016186
												}
											}
										}
									}
								}
								JOINT LeftHandPinky1
								{
									OFFSET 20.037003 -1.530319 -10.950146
									CHANNELS 3 Xrotation Yrotation Zrotation
									JOINT LeftHandPinky2
									{
										OFFSET 5.254700 0.000000 0.000000
										CHANNELS 3 Xrotation Yrotation Zrotation
										JOINT LeftHandPinky3
										{
											OFFSET 4.810204 0.000000 0.000000
											CHANNELS 3 Xrotation Yrotation Zrotation
											JOINT LeftHandPinky4
											{
												OFFSET 3.647202 0.000000 0.000000
												CHANNELS 3 Xrotation Yrotation Zrotation
												End Site
												{
													OFFSET 0.000000 3.647186 0.011889
												}
											}
										}
									}
								}
							}
						}
					}
				}
				JOINT RightShoulder
				{
					OFFSET -15.141001 14.495407 -7.737500
					CHANNELS 3 Xrotation Yrotation Zrotation
					JOINT RightArm
					{
						OFFSET -9.308998 -2.777710 0.208500
						CHANNELS 3 Xrotation Yrotation Zrotation
						JOINT RightForeArm
						{
							OFFSET -29.972300 0.000000 0.000000
							CHANNELS 3 Xrotation Yrotation Zrotation
							JOINT RightHand
							{
								OFFSET -26.026505 0.000000 0.000000
								CHANNELS 3 Xrotation Yrotation Zrotation
								JOINT RightHandThumb1
								{
									OFFSET -12.240601 -7.148026 9.207092
									CHANNELS 3 Xrotation Yrotation Zrotation
									JOINT RightHandThumb2
									{
										OFFSET -4.138618 -2.389435 2.389433
										CHANNELS 3 Xrotation Yrotation Zrotation
										JOINT RightHandThumb3
										{
											OFFSET -2.726974 -1.574417 1.574421
											CHANNELS 3 Xrotation Yrotation Zrotation
											JOINT RightHandThumb4
											{
												OFFSET -3.941010 -2.275345 2.275343
												CHANNELS 3 Xrotation Yrotation Zrotation
												End Site
												{
													OFFSET 0.005814 5.087799 0.009927
												}
											}
										}
									}
								}
								JOINT RightHandIndex1
								{
									OFFSET -24.424698 -1.985657 5.953444
									CHANNELS 3 Xrotation Yrotation Zrotation
									JOINT RightHandIndex2
									{
										OFFSET -6.426697 0.000000 0.000000
										CHANNELS 3 Xrotation Yrotation Zrotation
										JOINT RightHandIndex3
										{
											OFFSET -5.337898 0.000000 0.000000
											CHANNELS 3 Xrotation Yrotation Zrotation
											JOINT RightHandIndex4
											{
												OFFSET -4.409401 0.000000 0.000000
												CHANNELS 3 Xrotation Yrotation Zrotation
												End Site
												{
													OFFSET 0.000000 4.409363 0.014408
												}
											}
										}
									}
								}
								JOINT RightHandMiddle1
								{
									OFFSET -23.810097 0.000000 0.000000
									CHANNELS 3 Xrotation Yrotation Zrotation
									JOINT RightHandMiddle2
									{
										OFFSET -7.176498 0.000000 0.000000
										CHANNELS 3 Xrotation Yrotation Zrotation
										JOINT RightHandMiddle3
										{
											OFFSET -6.774902 0.000000 0.000000
											CHANNELS 3 Xrotation Yrotation Zrotation
											JOINT RightHandMiddle4
											{
												OFFSET -5.403328 0.000000 0.000000
												CHANNELS 3 Xrotation Yrotation Zrotation
												End Site
												{
													OFFSET 0.027702 5.403244 0.017457
												}
											}
										}
									}
								}
								JOINT RightHandRing1
								{
									OFFSET -22.908302 -0.839325 -6.020576
									CHANNELS 3 Xrotation Yrotation Zrotation
									JOINT RightHandRing2
									{
										OFFSET -6.337502 0.000000 0.000000
										CHANNELS 3 Xrotation Yrotation Zrotation
										JOINT RightHandRing3
										{
											OFFSET -5.779297 0.000000 0.000000
											CHANNELS 3 Xrotation Yrotation Zrotation
											JOINT RightHandRing4
											{
												OFFSET -4.965698 0.000000 0.000000
												CHANNELS 3 Xrotation Yrotation Zrotation
												End Site
												{
													OFFSET 0.000000 4.965668 0.016226
												}
											}
										}
									}
								}
								JOINT RightHandPinky1
								{
									OFFSET -20.037003 -1.530334 -10.950259
									CHANNELS 3 Xrotation Yrotation Zrotation
									JOINT RightHandPinky2
									{
										OFFSET -5.254700 0.000000 0.000000
										CHANNELS 3 Xrotation Yrotation Zrotation
										JOINT RightHandPinky3
										{
											OFFSET -4.810204 0.000000 0.000000
											CHANNELS 3 Xrotation Yrotation Zrotation
											JOINT RightHandPinky4
											{
												OFFSET -3.647202 0.000000 0.000000
												CHANNELS 3 Xrotation Yrotation Zrotation
												End Site
												{
													OFFSET 0.000000 3.647186 0.011917
												}
											}
										}
									}
								}
							}
						}
					}
				}
			}
		}
	}
	JOINT LeftUpLeg
	{
		OFFSET 15.427100 -6.655098 0.678600
		CHANNELS 3 Xrotation Yrotation Zrotation
		JOINT LeftLeg
		{
			OFFSET 4.081073 -39.591068 13.024000
			CHANNELS 3 Xrotation Yrotation Zrotation
			JOINT LeftFoot
			{
				OFFSET -4.081074 -37.707932 -15.979700
				CHANNELS 3 Xrotation Yrotation Zrotation
				JOINT LeftToeBase
				{
					OFFSET 5.346399 -15.068900 20.645000
					CHANNELS 3 Xrotation Yrotation Zrotation
					JOINT LeftToe_End
					{
						OFFSET 2.754700 0.931300 11.300900
						CHANNELS 3 Xrotation Yrotation Zrotation
						End Site
						{
							OFFSET 0.000000 11.669021 0.000000
						}
					}
				}
			}
		}
	}
	JOINT RightUpLeg
	{
		OFFSET -15.569500 -6.655098 0.678600
		CHANNELS 3 Xrotation Yrotation Zrotation
		JOINT RightLeg
		{
			OFFSET -4.081825 -39.591045 13.023800
			CHANNELS 3 Xrotation Yrotation Zrotation
			JOINT RightFoot
			{
				OFFSET 4.081824 -37.707954 -15.979600
				CHANNELS 3 Xrotation Yrotation Zrotation
				JOINT RightToeBase
				{
					OFFSET -5.346400 -15.068900 20.645000
					CHANNELS 3 Xrotation Yrotation Zrotation
					JOINT RightToe_End
					{
						OFFSET -2.754700 0.931300 11.300900
						CHANNELS 3 Xrotation Yrotation Zrotation
						End Site
						{
							OFFSET 0.000000 11.669021 0.000000
						}
					}
				}
			}
		}
	}
}
MOTION
Frames: 6
Frame Time: 0.033333
0.423639 81.998299 -15.717239 43.272254 0.975846 -3.989562 3.698590 1.044391 0.218571 4.386249 3.055632 0.197097 4.412423 3.000301 -0.133047 -23.863672 -3.748522 4.634658 -15.507502 -3.355800 -4.917964 -0.000001 0.000000 0.000000 0.259371 -19.371697 -11.879514 -42.837171 -65.878759 -74.152584 0.000004 -0.000015 -0.000005 9.897860 7.205499 -0.771133 53.417793 -58.203423 -1.904858 28.170142 27.569073 -21.989143 2.022486 52.293188 27.415022 0.000000 -0.000003 -0.000002 2.125800 7.704924 -82.398309 1.357213 3.750879 -39.772663 1.884468 4.304726 -47.268447 -0.000001 -0.000000 -0.000000 2.323510 7.992413 -86.442669 1.349426 3.741530 -39.653497 3.213914 5.224899 -63.170377 -0.000000 0.000000 -0.000000 4.487860 8.257055 -92.139300 1.061996 3.365460 -35.018701 3.418572 5.323047 -65.396630 0.000000 0.000000 0.000000 4.698167 14.754426 -82.152839 0.874317 3.080719 -31.681412 1.211272 3.568608 -37.486599 -0.000001 0.000001 0.000001 5.108689 7.807033 17.128407 -48.294977 61.345344 71.066609 0.000001 0.000003 -0.000010 19.907126 6.015003 21.148590 42.310799 34.896328 13.793834 15.804793 -21.000165 -3.430423 5.179341 -48.070175 -24.323519 -0.000000 -0.000000 -0.000004 6.431105 -6.802334 72.400640 1.607972 -3.521812 49.069329 1.015480 -2.904933 38.529278 0.000000 0.000001 0.000000 2.385536 -6.415433 71.722703 1.348043 -3.278852 44.689193 2.427409 -4.089731 61.367713 0.000001 0.000001 -0.000001 -0.278423 -5.429472 70.053678 0.773804 -2.572704 33.474976 2.984852 -4.347157 68.934606 0.000000 0.000002 -0.000001 -0.345122 -5.272438 57.215337 0.934073 -2.799786 36.893362 1.596068 -3.511468 48.875188 0.000000 -0.000001 -0.000001 -78.452168 -4.459731 15.566836 40.933979 2.805355 -5.188142 -3.579020 2.742506 -7.177103 0.117745 -0.000003 -0.011862 -0.000000 -0.000001 0.000000 -75.911078 0.370793 -13.359058 39.762554 -6.986886 5.264524 -3.829179 -3.141720 8.363928 0.088457 -0.000021 0.038907 -0.000000 -0.000001 -0.000000 
0.444420 83.543770 -15.156647 39.193009 1.155762 -3.722869 3.541100 1.037773 0.203361 4.184703 3.022645 0.154798 4.210336 2.967660 -0.168879 -23.176025 -3.780374 4.530752 -14.534663 -3.660699 -4.820068 -0.000002 -0.000000 -0.000000 0.346587 -19.049966 -11.961426 -41.143711 -64.212562 -75.040440 -0.000004 -0.000007 0.000002 10.858621 7.616054 -3.078887 53.417796 -58.203423 -1.904855 28.504396 27.975234 -22.226487 1.982018 52.952893 27.541631 0.000001 0.000002 -0.000000 2.187804 7.744517 -83.034856 1.359846 3.754028 -39.813019 1.894880 4.314292 -47.406960 0.000000 -0.000000 -0.000000 2.364521 8.032751 -87.116440 1.344178 3.735201 -39.573037 3.262873 5.249273 -63.706923 -0.000000 0.000000 -0.000001 4.472719 8.278292 -92.837932 1.056534 3.357644 -34.925561 3.476307 5.349001 -66.017624 0.000000 0.000000 -0.000001 4.659487 14.814241 -82.572226 0.880058 3.089975 -31.788066 1.233819 3.597763 -37.847547 -0.000000 0.000001 0.000001 5.237410 7.610376 17.997526 -45.781303 59.957887 70.788839 -0.000004 0.000007 0.000009 20.555290 5.178352 23.400570 42.310819 34.896335 13.793838 15.866572 -21.044870 -3.361759 5.250194 -48.203804 -24.331203 0.000001 -0.000002 -0.000001 6.518913 -6.845658 73.065307 1.606237 -3.520324 49.041311 1.014375 -2.903580 38.507842 0.000000 -0.000001 -0.000000 2.389749 -6.417451 71.761130 1.340446 -3.271144 44.556039 2.426012 -4.088980 61.348322 -0.000000 -0.000001 -0.000000 -0.306313 -5.416069 70.004296 0.771824 -2.569711 33.430808 2.986625 -4.347848 68.958355 0.000000 0.000000 -0.000001 -0.419907 -5.177945 57.200003 0.925285 -2.788043 36.713274 1.595827 -3.511258 48.871414 0.000000 0.000001 0.000001 -72.455699 -3.007511 15.367946 38.794194 2.557618 -4.566505 -3.645695 2.673255 -7.090332 0.120866 -0.000009 -0.014609 0.000000 0.000001 0.000000 -69.915886 -0.142627 -12.788272 37.598853 -7.254448 4.410551 -3.745337 -3.022064 8.632149 0.096137 -0.000019 0.035609 -0.000000 0.000000 -0.000000 
0.461411 84.985504 -14.539371 35.157675 1.399651 -3.437061 3.358117 1.008089 0.184905 3.958417 2.981301 0.138957 3.983562 2.928167 -0.178478 -22.376217 -3.827473 4.440084 -13.250173 -3.995284 -4.438057 -0.000000 0.000000 0.000000 0.500684 -18.733351 -11.759619 -40.590045 -62.752985 -76.418328 0.000002 -0.000002 -0.000009 11.769919 8.715250 -6.678132 53.417800 -58.203409 -1.904854 28.863208 28.400710 -22.485878 1.901542 53.542181 27.694296 0.000000 0.000001 0.000001 2.258380 7.780751 -83.585239 1.360702 3.755061 -39.825952 1.901059 4.319944 -47.488915 -0.000001 -0.000000 -0.000000 2.393525 8.068150 -87.715297 1.337562 3.727197 -39.471414 3.308047 5.271257 -64.199564 0.000001 0.000001 0.000000 4.449326 8.298779 -93.456898 1.048735 3.346448 -34.792003 3.532576 5.373552 -66.619705 -0.000001 -0.000000 0.000000 4.621499 14.863098 -82.940305 0.884948 3.097855 -31.878730 1.254948 3.624777 -38.182994 -0.000001 0.000002 -0.000001 5.345513 7.465824 19.052364 -43.899214 58.282277 70.312460 0.000007 0.000006 -0.000000 21.328835 4.182964 27.036675 42.310799 34.896341 13.793826 15.929079 -21.078230 -3.297296 5.256098 -48.265084 -24.446990 0.000000 0.000001 0.000004 6.592435 -6.890583 73.614440 1.623102 -3.534866 49.315202 1.013170 -2.902049 38.483827 -0.000000 -0.000000 -0.000000 2.401075 -6.421768 71.798361 1.335547 -3.266177 44.470098 2.422710 -4.087151 61.301644 -0.000001 0.000001 -0.000004 -0.356553 -5.396174 69.979031 0.764321 -2.558317 33.263083 2.986054 -4.347637 68.950548 0.000000 0.000000 -0.000000 -0.488873 -5.095900 57.165060 0.918070 -2.778364 36.564584 1.594566 -3.510171 48.850701 0.000000 -0.000000 0.000001 -66.508202 -1.701359 14.951279 36.727761 2.396124 -3.801364 -3.737928 2.626525 -7.171484 0.123630 -0.000000 -0.017653 -0.000000 -0.000000 0.000000 -63.983477 -0.704142 -12.395124 35.550889 -7.416036 3.653402 -3.757348 -2.887003 8.859799 0.103863 -0.000005 0.032067 -0.000000 -0.000001 -0.000000 
0.484270 86.321449 -13.880577 31.094228 1.732540 -3.066601 3.171787 0.918740 0.151264 3.754662 2.887497 0.111891 3.779660 2.835858 -0.199588 -21.416268 -3.878795 4.432939 -11.806650 -4.257769 -4.262925 0.000000 -0.000000 -0.000000 0.659095 -18.567085 -11.565327 -39.955876 -61.366798 -77.648446 0.000004 -0.000006 0.000013 12.568645 9.967746 -10.183333 53.417810 -58.203430 -1.904850 29.204338 28.806480 -22.739508 1.880312 54.115941 27.777985 -0.000001 -0.000000 -0.000003 2.314722 7.814907 -84.112045 1.360223 3.754472 -39.818695 1.904111 4.322735 -47.529350 0.000001 0.000000 -0.000000 2.426304 8.100993 -88.268112 1.330508 3.718611 -39.362800 3.350176 5.291342 -64.657269 -0.000001 0.000000 -0.000000 4.439333 8.315966 -93.968629 1.042456 3.337429 -34.684397 3.581469 5.394346 -67.140971 0.000001 0.000001 -0.000001 4.584076 14.923086 -83.226955 0.889009 3.104357 -31.953766 1.272460 3.646868 -38.459084 -0.000001 0.000001 -0.000002 5.451861 7.140014 19.757775 -42.195051 56.866130 70.134404 0.000009 0.000018 -0.000001 21.785078 3.266238 30.625462 42.310833 34.896345 13.793813 16.000994 -21.167088 -3.215648 5.324138 -48.356356 -24.454948 -0.000001 0.000000 -0.000000 6.665089 -6.892683 74.269011 1.622264 -3.534149 49.301613 1.010840 -2.899125 38.437979 -0.000000 0.000002 -0.000000 2.410915 -6.426041 71.863152 1.324154 -3.254545 44.269933 2.416783 -4.083934 61.218466 -0.000000 -0.000000 0.000000 -0.373527 -5.386879 69.933392 0.745153 -2.528877 32.831111 2.984232 -4.346933 68.926765 -0.000000 -0.000002 0.000001 -0.553920 -5.020064 57.123133 0.910908 -2.768716 36.416721 1.592295 -3.508187 48.813555 -0.000000 -0.000002 -0.000001 -60.534642 -0.416305 14.345071 34.684121 2.203351 -3.017537 -3.835701 2.589532 -7.278484 0.126153 0.000004 -0.020983 -0.000000 0.000000 0.000000 -58.080199 -1.317191 -12.239348 33.673758 -7.562490 2.952019 -3.878981 -2.626181 9.108281 0.111426 -0.000010 0.028898 -0.000000 -0.000001 -0.000000 
0.499372 87.569832 -13.187767 27.024999 2.060930 -2.669896 3.009838 0.826411 0.106612 3.602534 2.789521 0.052043 3.627307 2.737825 -0.253172 -20.363229 -3.937289 4.466818 -9.934228 -4.553948 -4.133581 0.000001 0.000000 -0.000000 0.815839 -18.366549 -11.404791 -39.316451 -60.335091 -78.715328 0.000002 0.000003 -0.000003 13.238532 11.287638 -13.727590 53.417800 -58.203430 -1.904869 29.583079 29.241109 -23.033343 1.834478 54.633737 27.875336 -0.000002 0.000001 -0.000001 2.372497 7.857920 -84.612725 1.358917 3.752908 -39.798754 1.904096 4.322740 -47.529309 0.000000 0.000000 -0.000000 2.474124 8.132244 -88.790840 1.322140 3.708423 -39.233498 3.387120 5.308610 -65.057183 0.000000 -0.000000 0.000001 4.428458 8.331980 -94.424749 1.032222 3.322616 -34.508219 3.623441 5.411775 -67.586621 -0.000001 -0.000000 0.000002 4.531812 14.964909 -83.402333 0.892251 3.109548 -32.013527 1.288714 3.667188 -38.713833 0.000001 0.000000 -0.000001 5.563309 6.737429 20.322086 -40.790084 55.510115 70.178233 0.000007 0.000034 -0.000012 22.201624 2.331886 34.185947 42.310812 34.896335 13.793821 16.064269 -21.173954 -3.160884 5.345533 -48.396234 -24.536650 0.000001 0.000000 0.000001 6.717011 -6.941389 74.672361 1.599975 -3.514893 48.939019 1.007649 -2.895088 38.374677 0.000000 0.000000 -0.000000 2.400174 -6.421790 71.817445 1.313758 -3.243872 44.086562 2.411586 -4.081065 61.145609 0.000000 -0.000001 -0.000000 -0.386724 -5.372718 69.797792 0.733937 -2.511441 32.576123 2.981704 -4.345971 68.893331 0.000001 -0.000000 0.000000 -0.621524 -4.934221 57.024054 0.899944 -2.753794 36.189026 1.588636 -3.504993 48.753774 0.000000 0.000001 0.000001 -54.576551 0.889008 13.706582 32.654861 1.898886 -2.252334 -3.928414 2.546776 -7.371318 0.128545 0.000009 -0.024342 -0.000000 -0.000001 0.000000 -52.194612 -1.957077 -12.106718 31.866552 -7.710951 2.217554 -4.050879 -2.346072 9.406421 0.118950 -0.000013 0.025763 0.000000 -0.000000 0.000000 
0.493279 88.745148 -12.477867 23.199950 2.292455 -2.397020 2.819155 0.765411 0.076748 3.418813 2.719653 0.002542 3.443192 2.667481 -0.296130 -19.235568 -4.028463 4.617715 -7.792173 -4.796567 -3.948327 0.000000 0.000000 -0.000000 1.028743 -17.800019 -10.892167 -39.482417 -59.395694 -80.716266 -0.000002 -0.000003 0.000001 14.008610 12.578105 -17.045241 53.417793 -58.203416 -1.904885 29.985248 29.691181 -23.354548 1.690752 55.047322 28.051858 -0.000001 0.000001 -0.000001 2.431119 7.894546 -85.082246 1.352270 3.744933 -39.696991 1.901116 4.319985 -47.489721 0.000001 0.000000 -0.000000 2.518358 8.161571 -89.287095 1.312318 3.696369 -39.081379 3.420064 5.323755 -65.412851 0.000000 0.000000 0.000001 4.408920 8.348348 -94.852879 1.021331 3.306732 -34.319737 3.662331 5.427581 -67.998372 0.000001 0.000001 -0.000000 4.492622 14.990807 -83.597267 0.894677 3.113434 -32.058377 1.305663 3.688220 -38.978144 -0.000001 -0.000001 0.000001 5.677716 6.283054 20.767388 -39.453389 54.228505 70.340546 -0.000005 0.000015 0.000005 22.587704 1.458295 37.482285 42.310812 34.896345 13.793821 16.136399 -21.231851 -3.090267 5.418340 -48.458106 -24.529031 0.000000 -0.000001 -0.000001 6.775459 -6.967347 75.239035 1.599945 -3.514873 48.938763 1.004641 -2.891283 38.314964 0.000000 -0.000001 0.000000 2.387520 -6.417208 71.791026 1.306707 -3.236584 43.961768 2.404055 -4.076915 61.039515 0.000000 -0.000001 -0.000002 -0.451291 -5.340852 69.680654 0.722141 -2.492907 32.305859 2.979254 -4.345013 68.861107 0.000000 -0.000000 -0.000001 -0.684126 -4.855660 56.964396 0.888624 -2.738263 35.952780 1.587884 -3.504348 48.741620 -0.000000 0.000000 -0.000001 -48.932551 2.121242 13.211999 30.663885 1.498111 -1.504135 -3.985562 2.498389 -7.485376 0.130717 0.000017 -0.027814 -0.000000 0.000001 -0.000000 -46.504518 -2.562566 -11.759105 29.958924 -7.862290 1.457650 -4.155478 -2.195451 9.716876 0.126614 -0.000010 0.022240 -0.000000 0.000001 0.000000 
